<?xml version="1.0" encoding="utf-8"?>
<!-- Generator: Adobe Illustrator 21.1.0, SVG Export Plug-In . SVG Version: 6.00 Build 0)  -->
<svg version="1.1" id="Layer_1" xmlns="http://www.w3.org/2000/svg" xmlns:xlink="http://www.w3.org/1999/xlink" x="0px" y="0px"
	 viewBox="0 0 960 1008" style="enable-background:new 0 0 960 1008;" xml:space="preserve">
<style type="text/css">
	.st0{opacity:0.58;fill:#202323;}
	.st1{opacity:0.37;fill:#202323;}
	.st2{fill:none;stroke:#F18571;stroke-width:6;stroke-miterlimit:10;}
	.st3{fill:none;}
</style>
<path class="st0" d="M832-9L601.5,322.7c58.1,39.2,96.2,105.6,96.2,180.9c0,120.3-97.4,217.9-217.7,218.1c-0.1,0-0.2,0-0.4,0
	c-47.4,0-91.3-15.1-127-40.8L119,1017h171h678V-9H832z"/>
<path class="st1" d="M261.5,503.6c0-120.4,97.7-218.1,218.1-218.1c0.1,0,0.2,0,0.4,0c45,0.1,86.8,13.8,121.5,37.2L832-9H670H-8v1026
	h127l233.6-336.1C297.4,641.3,261.5,576.6,261.5,503.6z"/>
<circle class="st2" cx="480" cy="504" r="219.1"/>
<g>
	<path class="st3" d="M479.6,285.5c-120.4,0-218.1,97.7-218.1,218.1c0,73,35.9,137.7,91.1,177.3l248.9-358.2
		c-34.7-23.4-76.5-37.1-121.5-37.2C479.8,285.5,479.7,285.5,479.6,285.5z"/>
	<path class="st3" d="M352.6,680.9c35.8,25.7,79.6,40.8,127,40.8c0.2,0,0.3,0,0.4,0c120.3-0.2,217.7-97.8,217.7-218.1
		c0-75.3-38.2-141.7-96.2-180.9"/>
</g>
</svg>
