<?xml version="1.0" encoding="utf-8"?>
<!-- Generator: Adobe Illustrator 21.1.0, SVG Export Plug-In . SVG Version: 6.00 Build 0)  -->
<svg version="1.1" id="Layer_1" xmlns="http://www.w3.org/2000/svg" xmlns:xlink="http://www.w3.org/1999/xlink" x="0px" y="0px"
	 viewBox="0 0 960 1008" style="enable-background:new 0 0 960 1008;" xml:space="preserve">
<style type="text/css">
	.st0{opacity:0.37;fill:#202323;}
	.st1{opacity:0.58;fill:#202323;}
	.st2{fill:none;}
	.st3{fill:none;stroke:#F18571;stroke-width:5;stroke-miterlimit:10;}
</style>
<g>
	<path class="st0" d="M299.6,498.6c0-98.9,80.2-179.1,179.1-179.1c37.8,0,72.9,11.7,101.8,31.7L831-9H-9v1026h127l258-371.7
		C329.8,612.9,299.6,559.3,299.6,498.6z"/>
	<path class="st1" d="M831-9L580.5,351.3c46.7,32.3,77.3,86.2,77.3,147.3c0,98.9-80.2,179.1-179.1,179.1c-38.2,0-73.6-12-102.7-32.3
		L118,1017h849V-9H831z"/>
	<path class="st2" d="M633,500.4c0-53-26.8-99.8-67.6-127.5c-24.6-16.7-54.4-26.5-86.4-26.5c-85.1,0-154,68.9-154,154
		c0,51.7,25.5,97.5,64.6,125.4c25.2,18,56.1,28.6,89.4,28.6C564.1,654.4,633,585.5,633,500.4z"/>
</g>
<circle class="st3" cx="478.3" cy="498.2" r="178.2"/>
</svg>
