<?xml version="1.0" encoding="utf-8"?>
<!-- Generator: Adobe Illustrator 21.1.0, SVG Export Plug-In . SVG Version: 6.00 Build 0)  -->
<svg version="1.1" id="Layer_1" xmlns="http://www.w3.org/2000/svg" xmlns:xlink="http://www.w3.org/1999/xlink" x="0px" y="0px"
	 viewBox="0 0 960 1008" style="enable-background:new 0 0 960 1008;" xml:space="preserve">
<style type="text/css">
	.st0{opacity:0.58;fill:#F18571;}
	.st1{opacity:0.37;fill:#F18571;}
	.st2{fill:none;stroke:#F18571;stroke-width:6;stroke-miterlimit:10;}
</style>
<g>
	<path class="st0" d="M832-9L646.7,257.6c78.9,53.5,130.8,143.9,130.8,246.4c0,164.3-133.2,297.5-297.5,297.5
		c-64.4,0-124.1-20.5-172.8-55.3L119,1017h171h678V-9H832z"/>
	<path class="st1" d="M182.5,504c0-164.3,133.2-297.5,297.5-297.5c61.8,0,119.2,18.8,166.7,51.1L832-9H670H-8v1026h127l188.2-270.8
		C231.7,692.2,182.5,603.9,182.5,504z"/>
</g>
<circle class="st2" cx="480" cy="504" r="297.5"/>
</svg>
