<?xml version="1.0" encoding="utf-8"?>
<!-- Generator: Adobe Illustrator 21.1.0, SVG Export Plug-In . SVG Version: 6.00 Build 0)  -->
<svg version="1.1" id="Layer_1" xmlns="http://www.w3.org/2000/svg" xmlns:xlink="http://www.w3.org/1999/xlink" x="0px" y="0px"
	 viewBox="0 0 316 121" style="enable-background:new 0 0 316 121;" xml:space="preserve">
<style type="text/css">
	.st0{fill:#F48070;}
</style>
<g>
	<path class="st0" d="M6.3,60.3"/>
</g>
<g>
	<path class="st0" d="M302,10.1v0.5h-1v2.8h-0.6v-2.7h-1v-0.5L302,10.1L302,10.1z M305.5,13.4l-0.1-1.9c0-0.3,0-0.6,0-0.9l0,0
		c-0.1,0.3-0.2,0.7-0.3,1l-0.6,1.8h-0.7l-0.6-1.9c-0.1-0.3-0.2-0.6-0.2-0.9l0,0c0,0.3,0,0.6,0,0.9l-0.1,1.9h-0.6l0.2-3.3h1l0.6,1.6
		c0.1,0.3,0.1,0.5,0.2,0.8l0,0c0.1-0.3,0.2-0.6,0.2-0.8l0.6-1.6h0.9l0.3,3.3C306.3,13.4,305.5,13.4,305.5,13.4z"/>
</g>
<g>
	<path class="st0" d="M122.9,11.8c-0.7-0.2-1.5,0.1-1.9,0.7l-19.9,29.7C93.7,24.3,76,11.7,55.5,11.7C28.2,11.7,6,33.9,6,61.2
		s22.2,49.5,49.5,49.5S105,88.5,105,61.2c0-5.3-0.8-10.4-2.4-15.2l18.2-27.2v91.6h3.3V13.4C124.1,12.6,123.6,12,122.9,11.8z
		 M9.3,61.2C9.3,35.7,30,15,55.5,15c20,0,37,12.7,43.4,30.5l-41.3,61.7c-0.7,0-1.4,0.1-2.1,0.1C30,107.3,9.3,86.6,9.3,61.2z
		 M101.6,61.2c0,23.3-17.3,42.6-39.8,45.7l38.3-57.3C101.1,53.3,101.6,57.2,101.6,61.2z"/>
	<path class="st0" d="M203,110.4l-33.1-49.2l33-49.4l-4.1,0l-61.1,91.8V11.8h-3.3V109c0,0.7,0.5,1.4,1.2,1.6c0.2,0,0.3,0.1,0.5,0.1
		c0.5,0,1.1-0.3,1.4-0.7l30.6-45.8l31.2,46.3L203,110.4z"/>
	<path class="st0" d="M228.9,63.5c-13.4,0-13.4-15.4-13.4-26.6c0-7.3,0-13.5,1.6-18.3c1.8-5.5,5.7-8.2,11.8-8.3l0.1,0
		c5.8,0,10.1,3.5,11.7,8.3c1.6,4.8,1.6,11.3,1.6,18.3c0,7,0,13.5-1.6,18.3C238.9,60.8,235,63.5,228.9,63.5z M229,12.8L229,12.8
		c-10.5,0.1-11,8.8-11,24.1c0,16,1.7,24.1,10.9,24.1c10.4,0,10.9-8.7,10.9-24.1c0-6.8,0-13.1-1.4-17.5C236.9,14.8,234,12.8,229,12.8
		z"/>
	<path class="st0" d="M296.9,95.5l-8.3-12.3c-0.5-0.7-1.4-0.9-2.1-0.4c-0.7,0.5-0.9,1.4-0.4,2.1l6.8,10.1h-74.1
		c-0.6,0-1.2,0.5-1.2,1.2v0.5c0,0.6,0.5,1.2,1.2,1.2h74l-6.7,10.1c-0.5,0.7-0.3,1.6,0.4,2.1c0.3,0.2,0.5,0.3,0.8,0.3
		c0.5,0,1-0.2,1.3-0.7l8.1-12.2C297.2,97,297.3,96.1,296.9,95.5z"/>
	<path class="st0" d="M247.4,63.6h-2.3V11.5c0-0.5,0.4-1,0.9-1.1c0.5-0.1,1.1,0.1,1.3,0.6L269,57.2V10.3h2.3v52c0,0.5-0.4,1-0.9,1.1
		c-0.5,0.1-1.1-0.1-1.3-0.6l-21.7-46.2V63.6z"/>
	<path class="st0" d="M276.3,61.1V36.9h13.8v-2.3h-13.8V12.6h20.5v-2.3h-21.6c-0.6,0-1.1,0.5-1.1,1.1v50.8c0,0.6,0.5,1.1,1.1,1.1
		H297v-2.3H276.3z"/>
</g>
</svg>
