<?xml version="1.0" encoding="utf-8"?>
<!-- Generator: Adobe Illustrator 21.1.0, SVG Export Plug-In . SVG Version: 6.00 Build 0)  -->
<svg version="1.1" id="Layer_1" xmlns="http://www.w3.org/2000/svg" xmlns:xlink="http://www.w3.org/1999/xlink" x="0px" y="0px"
	 viewBox="0 0 605 303" style="enable-background:new 0 0 605 303;" xml:space="preserve">
<style type="text/css">
	.st0{fill:#EF8471;}
</style>
<g>
	<path class="st0" d="M334.5,18.7c-1.9-0.6-3.9,0.2-5,1.8l-53.1,79.3c-19.9-47.7-67.1-81.3-121.9-81.3
		c-72.8,0-132.1,59.2-132.1,132.1s59.2,132.1,132.1,132.1s132.1-59.2,132.1-132.1c0-14.1-2.2-27.7-6.4-40.5l48.5-72.6v244.6h8.9
		V22.9C337.6,21,336.3,19.2,334.5,18.7z M31.3,150.5c0-67.9,55.3-123.2,123.2-123.2c53.3,0,98.8,34,115.9,81.4L160.1,273.6
		c-1.9,0.1-3.8,0.1-5.7,0.1C86.5,273.7,31.3,218.5,31.3,150.5z M277.7,150.5c0,62.1-46.3,113.7-106.1,122l102.2-152.8
		C276.3,129.6,277.7,139.9,277.7,150.5z"/>
	<path class="st0" d="M536.8,281.8l-88.4-131.4l88-131.8l-11.1,0L362.2,263.5V18.6h-8.9v259.6c0,2,1.3,3.7,3.2,4.3
		c0.4,0.1,0.9,0.2,1.3,0.2c1.5,0,2.9-0.7,3.7-2l81.6-122.3l83.4,123.7L536.8,281.8z"/>
</g>
<g>
	<path class="st0" d="M569.9,21.3h-4.8v13.4h-3.8V21.3h-4.8v-3h13.4L569.9,21.3L569.9,21.3z M581.5,29.1l4.1-10.8h5.4v16.4h-3.7v-12
		h-0.1l-4.4,12h-2.7l-4.4-12h-0.1v12H572V18.3h5.4L581.5,29.1z"/>
</g>
</svg>
