<?xml version="1.0" encoding="utf-8"?>
<!-- Generator: Adobe Illustrator 21.1.0, SVG Export Plug-In . SVG Version: 6.00 Build 0)  -->
<svg version="1.1" id="Layer_1" xmlns="http://www.w3.org/2000/svg" xmlns:xlink="http://www.w3.org/1999/xlink" x="0px" y="0px"
	 viewBox="0 0 613 231" style="enable-background:new 0 0 613 231;" xml:space="preserve">
<style type="text/css">
	.st0{fill:#F48070;}
</style>
<g>
	<path class="st0" d="M249.5,21.6c-1.3-0.4-2.8,0.2-3.6,1.3l-38.3,57.4c-14.3-34.4-48.5-58.7-88-58.7C67,21.6,24.3,64.5,24.3,117
		s42.9,95.3,95.3,95.3S215,169.4,215,117c0-10.2-1.7-20-4.5-29.3l34.9-52.5v176.7h6.4V24.6C251.8,23.1,250.8,22,249.5,21.6z
		 M30.5,116.8c0-49.1,39.8-88.9,88.9-88.9c38.5,0,71.4,24.5,83.6,58.9l-79.7,118.9c-1.3,0-2.6,0.2-4.2,0.2
		C70.6,205.7,30.5,165.9,30.5,116.8z M208.6,116.8c0,44.9-33.4,82.1-76.6,88.2l73.8-110.4C207.6,101.7,208.6,109,208.6,116.8z"/>
	<path class="st0" d="M404,211.5l-63.8-95l63.6-95.1h-7.9L278,198.3V21.4h-6.4v187.5c0,1.3,0.9,2.6,2.3,3c0.4,0,0.6,0.2,0.9,0.2
		c1.1,0,2.1-0.6,2.6-1.5l58.9-88.4l60.2,89.3H404z"/>
	<path class="st0" d="M460.4,147c-32.1,0-32.1-37-32.1-64c0-17.6,0-32.5,3.8-44c4.3-13.4,13.8-19.8,28.3-20h0.2
		c14.5,0,23.8,6.6,28.1,20c3.8,11.5,3.8,27.4,3.8,44c0,16.8,0,32.7-3.8,44.2C484.2,140.4,474.9,147,460.4,147z M460.6,24.8h-0.2
		C435.3,25,434,46,434,83c0,38.5,4.2,58.1,26.2,58.1c25.1,0,26.2-21,26.2-58.1c0-16.2,0-31.7-3.4-42.3
		C479.5,29.7,472.5,24.8,460.6,24.8z"/>
	<path class="st0" d="M534.2,79.8L534.2,79.8c-0.8-0.6-1.5-0.9-2.1-1.5c-16-10.9-25.9-16-25.5-33c0.2-9.3,5.9-20.6,20.8-21.5
		c14.3-0.9,18.9,3.8,22.1,7c3.4,3.6,3.4,10.6,3.2,13l2.8,0.4l2.8,0.4c0-0.4,1.1-11.7-4.7-17.7c-3.6-3.8-9.4-9.8-26.6-8.9
		c-17.7,1-26,14.2-26.2,27c-0.6,19.4,10.8,26.6,24.7,35.7l0,0c0.8,0.6,1.5,0.9,2.1,1.5c16,10.9,25.9,18.5,25.5,35.3
		c-0.2,9.3-5.9,20.6-20.8,21.5c-14.3,0.9-18.9-3.8-22.1-7c-3.4-3.6-3.4-10.6-3.2-13l-2.8-0.4l-2.8-0.4c0,0.4-1.1,11.7,4.7,17.7
		c3.6,3.8,9.4,9.8,26.6,8.9c17.7-1.1,26.1-14.3,26.2-27.2C559.3,98.5,548,88.8,534.2,79.8z"/>
	<path class="st0" d="M554.4,183l-16-23.6c-0.9-1.3-2.6-1.7-4.2-0.8c-1.3,0.9-1.7,2.6-0.8,4.2l13.2,19.4H434.2
		c-1.3,0-2.3,0.9-2.3,2.3v1.1c0,1.3,0.9,2.3,2.3,2.3h112.1l-12.8,19.4c-0.9,1.3-0.6,3.2,0.8,4c0.6,0.4,1.1,0.6,1.7,0.6
		c0.9,0,1.9-0.4,2.5-1.3L554,187C555,185.9,555.4,184.2,554.4,183z"/>
</g>
<g>
	<path class="st0" d="M576.9,21.4v0.9H575v5.3h-1.1v-5.1H572v-0.9h4.9V21.4z M583.5,27.7l-0.2-3.6c0-0.6,0-1.1,0-1.7l0,0
		c-0.2,0.6-0.4,1.3-0.6,1.9l-1.1,3.4h-1.3l-1.1-3.6c-0.2-0.6-0.4-1.1-0.4-1.7l0,0c0,0.6,0,1.1,0,1.7l-0.2,3.6h-1.1l0.4-6.2h1.9
		l1.1,3c0.2,0.6,0.2,0.9,0.4,1.5l0,0c0.2-0.6,0.4-1.1,0.4-1.5l1.1-3h1.7l0.6,6.2H583.5z"/>
</g>
</svg>
